<svg width="22" height="22" viewBox="0 0 22 22" fill="none" xmlns="http://www.w3.org/2000/svg">
<path d="M11.1667 4V15M11.1667 15L7.5 11.3333M11.1667 15L14.8333 11.3333" stroke="black" stroke-width="2" stroke-linecap="round" stroke-linejoin="round"/>
<path d="M7.5 5.83331H3.83333C3.3471 5.83331 2.88079 6.02647 2.53697 6.37028C2.19315 6.7141 2 7.18042 2 7.66665V16.8333C2 17.3195 2.19315 17.7859 2.53697 18.1297C2.88079 18.4735 3.3471 18.6666 3.83333 18.6666H18.5C18.9862 18.6666 19.4525 18.4735 19.7964 18.1297C20.1402 17.7859 20.3333 17.3195 20.3333 16.8333V7.66665C20.3333 7.18042 20.1402 6.7141 19.7964 6.37028C19.4525 6.02647 18.9862 5.83331 18.5 5.83331H14.8333" stroke="black" stroke-width="2" stroke-linecap="round" stroke-linejoin="round"/>
</svg>
