<svg width="16" height="16" viewBox="0 0 16 16" fill="none" xmlns="http://www.w3.org/2000/svg">
<g clip-path="url(#clip0_597_116)">
<path fill-rule="evenodd" clip-rule="evenodd" d="M9.35664 1.87268C9.60331 1.69535 9.94997 1.61268 10.2906 1.73735C11.0149 2.00267 11.6876 2.39178 12.2786 2.88735C12.5566 3.12068 12.6586 3.46135 12.628 3.76268C12.578 4.26468 12.666 4.74935 12.908 5.16668C13.1213 5.53801 13.4426 5.83135 13.8346 6.03801L13.9846 6.11134C14.2606 6.23601 14.506 6.49535 14.568 6.85334C14.6996 7.61212 14.6996 8.3879 14.568 9.14668C14.5126 9.46935 14.308 9.71134 14.066 9.84734L13.9846 9.88934C13.5246 10.096 13.1486 10.416 12.9073 10.8333C12.666 11.2513 12.578 11.7353 12.628 12.2373C12.658 12.5387 12.5566 12.88 12.2786 13.1127C11.6876 13.6082 11.0149 13.9974 10.2906 14.2627C10.1358 14.318 9.96984 14.3347 9.80715 14.3111C9.64445 14.2875 9.49 14.2244 9.35731 14.1273C8.94664 13.8333 8.48197 13.6667 7.99997 13.6667C7.51797 13.6667 7.05331 13.8327 6.64331 14.1273C6.51054 14.2245 6.35597 14.2877 6.19315 14.3112C6.03032 14.3348 5.86419 14.3182 5.70931 14.2627C4.98504 13.9974 4.31237 13.6083 3.72131 13.1127C3.59612 13.0063 3.49884 12.871 3.43796 12.7184C3.37707 12.5658 3.35442 12.4007 3.37197 12.2373C3.42197 11.7353 3.33331 11.2507 3.09197 10.8333C2.87217 10.4607 2.55073 10.1585 2.16531 9.96201L2.01531 9.88868C1.86487 9.82204 1.73305 9.71957 1.63136 9.59023C1.52967 9.46088 1.46121 9.30859 1.43197 9.14668C1.30026 8.38791 1.30026 7.61212 1.43197 6.85334C1.48731 6.53068 1.69197 6.28868 1.93397 6.15268L2.01531 6.11134C2.47531 5.90401 2.85131 5.58468 3.09264 5.16668C3.33331 4.74935 3.42197 4.26468 3.37197 3.76268C3.35442 3.59935 3.37707 3.43421 3.43796 3.28164C3.49884 3.12907 3.59612 2.99371 3.72131 2.88735C4.31238 2.39178 4.98505 2.00267 5.70931 1.73735C5.86411 1.68203 6.0301 1.66545 6.19279 1.68904C6.35548 1.71263 6.50992 1.77568 6.64264 1.87268C7.05264 2.16735 7.51731 2.33335 7.99997 2.33335C8.48264 2.33335 8.94664 2.16735 9.35664 1.87268ZM9.99464 3.05201C9.41731 3.43201 8.73664 3.66668 7.99997 3.66668C7.26331 3.66668 6.58264 3.43135 6.00531 3.05201C5.5412 3.23935 5.1058 3.49116 4.71197 3.80001C4.75197 4.48868 4.61531 5.19535 4.24731 5.83334C3.87864 6.47068 3.33531 6.94201 2.71864 7.25201C2.64916 7.74781 2.64916 8.25088 2.71864 8.74668C3.33531 9.05668 3.87864 9.52801 4.24731 10.1667C4.61531 10.8033 4.75197 11.51 4.71197 12.1987C5.10576 12.5078 5.54116 12.7598 6.00531 12.9473C6.58264 12.5673 7.26331 12.3327 7.99997 12.3327C8.73664 12.3327 9.41731 12.568 9.99464 12.9473C10.4587 12.76 10.8941 12.5082 11.288 12.1993C11.248 11.51 11.3846 10.8033 11.7526 10.166C12.1206 9.52801 12.6646 9.05668 13.2813 8.74601C13.3508 8.25066 13.3508 7.74803 13.2813 7.25268C12.6646 6.94201 12.1213 6.47068 11.7526 5.83268C11.3846 5.19534 11.248 4.48868 11.288 3.79935C10.8941 3.49049 10.4588 3.23935 9.99464 3.05201ZM7.99997 5.33335C8.70722 5.33335 9.3855 5.6143 9.88559 6.11439C10.3857 6.61449 10.6666 7.29277 10.6666 8.00001C10.6666 8.70726 10.3857 9.38553 9.88559 9.88563C9.3855 10.3857 8.70722 10.6667 7.99997 10.6667C7.29273 10.6667 6.61445 10.3857 6.11436 9.88563C5.61426 9.38553 5.33331 8.70726 5.33331 8.00001C5.33331 7.29277 5.61426 6.61449 6.11436 6.11439C6.61445 5.6143 7.29273 5.33335 7.99997 5.33335ZM7.99997 6.66668C7.64635 6.66668 7.30721 6.80715 7.05716 7.0572C6.80712 7.30725 6.66664 7.64639 6.66664 8.00001C6.66664 8.35363 6.80712 8.69277 7.05716 8.94282C7.30721 9.19287 7.64635 9.33334 7.99997 9.33334C8.3536 9.33334 8.69273 9.19287 8.94278 8.94282C9.19283 8.69277 9.33331 8.35363 9.33331 8.00001C9.33331 7.64639 9.19283 7.30725 8.94278 7.0572C8.69273 6.80715 8.3536 6.66668 7.99997 6.66668Z" fill="black"/>
</g>
<defs>
<clipPath id="clip0_597_116">
<rect width="16" height="16" fill="white"/>
</clipPath>
</defs>
</svg>
